HIERARCHY
ROOT joint_0
{
	OFFSET 0.000000 0.000000 0.000000
	CHANNELS 6 Xposition Yposition Zposition Zrotation Yrotation Xrotation 
	JOINT joint_1
	{
		OFFSET 0.000000 0.000000 0.000000
		CHANNELS 3 Zrotation Yrotation Xrotation
		JOINT joint_2
		{
			OFFSET 3.811170 -8.520760 0.839290
			CHANNELS 3 Zrotation Yrotation Xrotation
			JOINT joint_3
			{
				OFFSET 2.562200 -7.039590 0.000000
				CHANNELS 3 Zrotation Yrotation Xrotation
				JOINT joint_4
				{
					OFFSET 0.157640 -0.433110 2.322550
					CHANNELS 3 Zrotation Yrotation Xrotation
					End Site
					{
						OFFSET 0.000000 0.000000 0.000000
					}
				}
			}
		}
	}
	JOINT joint_5
	{
		OFFSET 0.000000 0.000000 0.000000
		CHANNELS 3 Zrotation Yrotation Xrotation
		JOINT joint_6
		{
			OFFSET -3.848050 -8.780180 0.839290
			CHANNELS 3 Zrotation Yrotation Xrotation
			JOINT joint_7
			{
				OFFSET -2.568260 -7.056230 0.000000
				CHANNELS 3 Zrotation Yrotation Xrotation
				JOINT joint_8
				{
					OFFSET -0.164730 -0.452590 2.363150
					CHANNELS 3 Zrotation Yrotation Xrotation
					End Site
					{
						OFFSET 0.000000 0.000000 0.000000
					}
				}
			}
		}
	}
	JOINT joint_9
	{
		OFFSET 0.028270 2.035590 -0.193380
		CHANNELS 3 Zrotation Yrotation Xrotation
		JOINT joint_10
		{
			OFFSET 0.056720 2.048850 -0.042750
			CHANNELS 3 Zrotation Yrotation Xrotation
			JOINT joint_11
			{
				OFFSET -0.054170 1.746240 0.172020
				CHANNELS 3 Zrotation Yrotation Xrotation
				JOINT joint_12
				{
					OFFSET 0.104070 1.761360 -0.123970
					CHANNELS 3 Zrotation Yrotation Xrotation
					End Site
					{
						OFFSET 0.000000 0.000000 0.000000
					}
				}
			}
			JOINT joint_13
			{
				OFFSET 3.362410 1.200890 -0.311210
				CHANNELS 3 Zrotation Yrotation Xrotation
				JOINT joint_14
				{
					OFFSET 4.983000 -0.000000 -0.000000
					CHANNELS 3 Zrotation Yrotation Xrotation
					JOINT joint_15
					{
						OFFSET 3.483560 -0.000000 -0.000000
						CHANNELS 3 Zrotation Yrotation Xrotation
						JOINT joint_16
						{
							OFFSET 0.715260 -0.000000 -0.000000
							CHANNELS 3 Zrotation Yrotation Xrotation
							End Site
							{
								OFFSET 0.000000 0.000000 0.000000
							}
						}
					}
				}
			}
			JOINT joint_17
			{
				OFFSET -3.136600 1.374050 -0.404650
				CHANNELS 3 Zrotation Yrotation Xrotation
				JOINT joint_18
				{
					OFFSET -5.241900 -0.000000 -0.000000
					CHANNELS 3 Zrotation Yrotation Xrotation
					JOINT joint_19
					{
						OFFSET -3.444170 -0.000000 -0.000000
						CHANNELS 3 Zrotation Yrotation Xrotation
						JOINT joint_20
						{
							OFFSET -0.622530 -0.000000 -0.000000
							CHANNELS 3 Zrotation Yrotation Xrotation
							End Site
							{
								OFFSET 0.000000 0.000000 0.000000
							}
						}
					}
				}
			}
		}
	}
}
MOTION
Frames: 11
Frame Time: 0.031667
-2.459858 14.507683 5.742495 170.276443 -42.221558 178.379807 -54.403650 -20.344451 135.916200 -84.959091 35.968353 23.100639 -50.608198 57.899855 -122.142880 20.173855 -11.233320 -8.798178 42.218197 21.626478 -144.676608 90.099757 -45.536670 -4.877430 -67.110399 -65.903423 -34.653709 -9.848580 5.392991 4.973752 6.439314 6.327254 -37.803492 44.427170 -25.108861 -41.849112 53.628057 7.156831 102.426241 -12.411918 -8.514580 98.996796 -39.118496 -85.866251 38.856805 7.679569 14.702998 131.071199 -60.298570 -3.180976 71.420549 -8.165555 -0.336222 -0.557936 114.365058 82.248901 -7.080739 -73.068182 -59.927250 111.181136 -8.488315 -3.318205 43.854001 10.526840 0.849443 -1.665742 
-2.618448 14.527208 5.658350 170.375656 -37.557163 178.634201 -106.738144 -10.886196 138.902513 -54.814703 49.205864 8.180331 -79.052842 47.912121 -64.628370 20.431054 -13.253650 -15.878622 -17.325002 25.348780 -109.186286 123.006516 -65.731159 -31.333851 -17.722171 -46.021097 -103.149824 -11.795585 5.946298 3.775757 41.614738 75.193068 30.651570 -12.098628 -44.951080 -32.746915 40.604170 10.198999 -166.517406 0.056267 -6.329582 80.413818 -113.970876 -64.615106 64.336356 -14.956497 13.992686 134.484063 -49.796997 0.091464 93.929151 -8.257391 -0.166122 -0.094451 48.911526 84.686192 -87.909198 162.241367 -55.459541 2.907128 -10.294985 -14.675348 11.594026 11.212368 0.921064 -1.244348 
-2.764054 14.545231 5.564871 170.413406 -32.941769 178.892181 -44.223909 -88.763364 152.581087 -73.375465 17.176012 6.393538 -6.978088 -1.282030 -41.568787 17.686505 -10.628764 -9.953578 -37.570461 71.554703 -163.145572 99.569869 -4.103966 -11.538472 113.698724 -32.051701 -61.771500 -11.836677 3.527708 10.826041 16.346494 49.449408 -9.955849 39.564123 -30.945320 -15.268082 108.500629 -16.841985 115.116200 5.987588 -5.132942 56.661364 -72.976409 -49.416511 160.045324 -92.950830 -8.333919 167.597764 -34.417501 -5.803901 115.838396 -8.274256 -0.018347 0.245560 177.683717 79.517891 -145.441302 104.177749 -74.730703 -106.912762 -43.303399 -6.052301 -106.076451 11.505034 0.953003 -0.896397 
-2.906213 14.562422 5.467940 170.488632 -28.315804 179.197021 -133.649248 -68.268513 23.518180 -112.053666 20.676540 30.044926 -119.181801 -18.947853 -65.479746 15.859416 -6.252084 1.103041 115.247353 82.150039 -21.819289 125.618858 -31.395327 -26.496846 81.969742 -24.512210 -129.592116 -13.582574 -0.176899 22.765678 5.096682 21.839438 -41.459484 43.041605 -40.690196 -82.690211 44.418387 0.591876 89.404690 6.368704 -5.296725 48.026509 99.056082 -47.110636 24.028612 -28.735953 -34.519703 -145.125693 -21.643462 -5.934264 98.355025 -8.115348 -0.000093 0.453785 132.673119 35.534162 148.665560 144.671943 -52.489804 -123.129967 -18.899202 -34.563209 -5.768732 11.489247 0.888397 -0.540513 
-3.037075 14.576888 5.359700 170.548111 -23.823706 179.467407 -71.495435 -68.862097 6.561990 -58.579500 21.217535 37.154279 141.248275 -18.612812 25.925568 15.757704 -6.318939 -2.982620 -74.907472 85.997274 -168.253095 115.110558 -43.102609 -10.804193 48.459864 -9.606785 168.004243 -15.056655 1.088104 18.223293 -1.831296 8.489137 -29.871890 -37.457519 4.060245 -45.722823 55.942330 -22.364787 54.414734 1.215338 -8.319612 49.118534 176.762864 -66.383059 -78.132132 -53.238738 -15.493009 95.403934 -37.641063 3.240082 73.598553 -7.684881 0.046575 0.542168 -22.618325 59.964997 -129.030565 100.057157 -56.343151 61.671508 3.029574 -19.629631 55.453227 11.148950 0.817193 -0.191952 
-3.164959 14.590025 5.247998 170.648514 -19.354546 179.764572 -87.590599 -40.170958 -16.000046 -51.475191 37.889935 29.300866 -108.366777 -15.717896 47.227333 14.161237 -6.379616 -7.157901 31.695404 85.299275 34.397826 117.695757 -34.917577 43.038818 -6.128464 -43.028628 -155.659205 -13.488582 2.108658 11.656631 8.590318 18.912123 -6.676376 -9.477162 6.044270 -42.020669 40.202900 -15.860671 57.865301 -1.910386 -10.172905 50.434598 88.730974 -40.310117 -67.634917 -65.377391 -21.764680 112.883617 -17.436812 34.121706 115.219062 -7.031281 0.103063 0.467650 113.247678 45.207000 24.955966 51.599943 -20.552864 137.416701 5.144645 -12.546853 12.192123 9.834701 0.595836 -0.082685 
-3.282469 14.598531 5.124234 170.778320 -15.053505 -179.976471 -64.920825 -33.504820 -28.524735 -54.540362 24.812424 4.144946 -66.479099 -38.309459 -4.603855 10.824005 -1.964729 2.725558 9.323263 33.568420 21.395651 96.020876 -24.417624 0.514869 18.311005 -21.264705 -78.563131 -9.741539 2.578104 6.270475 -29.155701 21.489930 -1.571740 -0.410762 3.939808 -54.712339 35.654588 -9.634299 40.895303 -0.796384 -13.918393 38.925952 32.093150 -34.159832 -37.053879 -157.185010 -76.834699 167.800011 -29.215437 6.371472 89.241114 -6.513155 0.120631 0.360473 72.351449 32.235102 0.367307 139.616892 30.414404 114.208360 8.906616 -32.870265 30.176384 8.609396 0.485586 -0.057839 
-3.397201 14.605514 4.997565 170.957077 -10.781870 -179.693497 -37.199953 8.305313 -26.137800 -42.040521 4.068473 -18.948324 -26.277155 -20.422559 7.890730 8.306517 2.584787 13.746356 -8.698893 13.619997 3.758040 113.345316 -0.214087 -21.454529 46.960931 -1.383097 -85.302239 -7.500209 1.471337 6.617460 -17.379215 -1.837147 -17.034587 10.912087 -10.239036 -22.417690 49.211998 -13.171931 21.552261 2.075324 -15.366066 20.158033 4.304300 -24.294336 -31.713169 -147.533007 -76.894661 -166.885927 -40.053267 2.086876 63.642910 -6.197174 0.118085 0.165324 70.576659 44.404597 -30.703965 117.599358 50.156465 145.909761 9.989465 -18.509051 22.215984 7.739145 0.337696 -0.068184 
-3.501622 14.606843 4.860115 171.189468 -6.673385 -179.448105 -43.038788 13.147231 -41.253246 -5.262932 -7.846100 -5.849227 -65.386309 -33.457692 -15.464522 6.365907 4.204114 15.974387 -32.318679 -15.175437 36.760088 67.290518 14.473632 -48.744789 23.763896 17.819070 -65.020771 -6.031526 -1.704021 12.108500 -1.882460 -3.362619 -22.209533 6.767376 -6.428167 -13.939464 23.128390 -13.807112 1.211616 2.772956 -14.014786 9.100734 -13.697007 -25.645130 -16.053188 34.484174 -78.028252 0.978272 -6.252419 19.988501 54.764617 -6.013549 0.127801 0.124432 66.258402 29.231710 23.265593 127.460170 67.402563 160.738745 2.229146 -20.034258 25.715428 7.003118 0.269908 -0.089521 
-3.603539 14.607029 4.720396 171.478287 -2.584581 -179.173004 -42.418903 15.267938 -39.534013 -11.059118 0.384633 2.410892 -27.228974 -29.722473 -23.184720 5.490078 3.392422 11.604773 -21.766172 -20.026793 6.644455 62.061681 8.809930 -10.084705 18.799723 2.706290 -57.140253 -4.927199 -6.547491 22.978129 -20.565327 5.782419 -17.409980 -0.190379 3.897035 -12.762211 14.278865 -14.497138 12.737902 4.007965 -13.356009 4.964305 -22.511566 -12.971047 -21.188416 19.102048 -61.352509 -10.934856 -16.121861 16.238659 42.077336 -5.624563 0.118069 0.212589 50.148861 25.903308 8.572523 -53.794314 85.270827 -62.725575 -6.993403 -18.271847 20.670307 6.270390 0.239978 -0.055394 
-3.695530 14.602684 4.571686 171.832626 1.375654 -178.939560 -21.826940 20.166972 -33.704340 -1.561971 2.365253 10.353646 -11.856475 -37.599816 -9.819888 4.709614 1.620912 4.959695 -32.965925 -15.767377 12.644715 40.320014 4.714388 15.689926 24.143406 -4.591586 -64.477218 -4.653410 -10.914677 33.664619 -4.070418 2.967113 -20.491445 3.371599 -4.160947 -9.670205 10.390678 -6.992780 -15.949475 3.154018 -11.332715 0.493955 -15.207631 -11.826824 -2.158389 27.741877 -50.098242 -0.460081 3.829599 2.958414 30.358401 -5.411675 0.119496 0.145982 53.398426 14.701740 24.736671 -66.581394 68.440381 -51.540345 -7.543660 -10.430898 17.114134 5.736461 0.160836 -0.072489 
